<svg id="icon_bounding_boxes" data-name="icon bounding boxes" xmlns="http://www.w3.org/2000/svg" width="20" height="20" viewBox="0 0 20 20">
  <title>direction</title>
  <rect x="20" y="20" width="20" height="20" fill="none" stroke="#000" stroke-miterlimit="10" stroke-width="0.1"/>
  <rect y="20" width="20" height="20" fill="none" stroke="#000" stroke-miterlimit="10" stroke-width="0.1"/>
  <rect x="-20" y="20" width="20" height="20" fill="none" stroke="#000" stroke-miterlimit="10" stroke-width="0.1"/>
  <rect x="20" y="-20" width="20" height="20" fill="none" stroke="#000" stroke-miterlimit="10" stroke-width="0.1"/>
  <rect x="-20" y="-20" width="20" height="20" fill="none" stroke="#000" stroke-miterlimit="10" stroke-width="0.1"/>
  <rect y="-20" width="20" height="20" fill="none" stroke="#000" stroke-miterlimit="10" stroke-width="0.1"/>
  <rect x="20" width="20" height="20" fill="none" stroke="#000" stroke-miterlimit="10" stroke-width="0.1"/>
  <rect x="-20" width="20" height="20" fill="none" stroke="#000" stroke-miterlimit="10" stroke-width="0.1"/>
  <path d="M14.50342,8.96637L11.55157,7.62262A0.35755,0.35755,0,0,0,11.00916,8v9.49652A0.50346,0.50346,0,0,1,10.50568,18h-0.993a0.50346,0.50346,0,0,1-.50348-0.50348V8a0.35756,0.35756,0,0,0-.54242-0.37738L5.51489,8.96637a0.38659,0.38659,0,0,1-.40942-0.62354L10.00916,2l4.90369,6.34283A0.3866,0.3866,0,0,1,14.50342,8.96637Z"/>
</svg>
